<svg width="107" height="302" viewBox="0 0 107 302" fill="none" xmlns="http://www.w3.org/2000/svg">
<rect x="43" y="4" width="28" height="35" fill="#9A590D"/>
<ellipse cx="57" cy="4.5" rx="14" ry="4.5" fill="#AA620F"/>
<rect x="39" y="18" width="36" height="53" fill="#3C7244" fill-opacity="0.5"/>
<path d="M7 108.5C7 102.919 8.29328 97.3923 10.806 92.236C13.3188 87.0796 17.0017 82.3945 21.6447 78.448C26.2876 74.5015 31.7995 71.3709 37.8658 69.2351C43.9321 67.0993 50.4339 66 57 66C63.5661 66 70.0679 67.0993 76.1342 69.2351C82.2005 71.3709 87.7124 74.5015 92.3553 78.448C96.9983 82.3945 100.681 87.0796 103.194 92.236C105.707 97.3923 107 102.919 107 108.5L57 108.5L7 108.5Z" fill="#3C7244" fill-opacity="0.5"/>
<path d="M7.00006 108.5H107V301.5H7.00006V108.5Z" fill="#3C7244" fill-opacity="0.5"/>
<path d="M42 87H70L63.5 207L70 296.5H47V193.5L42 87Z" fill="#F2F3E1"/>
<line x1="45.9723" y1="203.501" x2="63.9723" y2="202.501" stroke="#A99191"/>
<line x1="45.9723" y1="203.501" x2="63.9723" y2="202.501" stroke="#A99191"/>
<line x1="45.9723" y1="205.501" x2="63.9723" y2="204.501" stroke="#A99191"/>
<line x1="46.9723" y1="204.501" x2="64.9723" y2="203.501" stroke="#A99191"/>
<path d="M67.6186 202.097C67.4266 201.306 67.5256 200.019 66.4896 200.001C64.722 199.969 62.9526 200.261 61.2388 200.682C60.2366 200.927 60.0779 201.023 60.2352 202.062C60.3711 202.958 60.5768 204.008 61.4001 204.517C62.5717 205.241 64.6903 205.403 65.9341 204.839C66.7913 204.451 66.8316 204.034 67.0989 203.262C67.5378 201.994 69.6326 200.665 70.9161 200.843C71.5855 200.936 72.201 201.222 72.8605 201.354C73.3838 201.458 73.9892 201.387 74.4823 201.614C74.9618 201.834 74.7213 203.134 74.7153 203.549C74.6851 205.628 72.8481 206.712 71.2386 205.162C70.6241 204.57 70.5325 204.194 69.6437 204.194C67.9975 204.194 67.6892 204.402 67.0093 206.058C66.1546 208.14 64.9115 209.985 63.909 211.99C63.7826 212.242 64.4262 210.691 64.5721 210.493C65.7337 208.916 66.9627 207.403 68.1025 205.807" stroke="#C4B6AF" stroke-width="3" stroke-linecap="round"/>
<path d="M69.0702 205.484C69.233 206.298 69.5874 206.984 69.9125 207.742C70.4188 208.924 70.8253 210.194 71.4089 211.336C71.6777 211.862 72.6185 213.083 72.6185 211.775" stroke="#C4B6AF" stroke-width="3" stroke-linecap="round"/>
</svg>
