<svg width="223" height="150" viewBox="0 0 223 150" fill="none" xmlns="http://www.w3.org/2000/svg">
<path d="M69.0133 33C99.9412 33 188.513 50.5721 188.513 81.5C188.513 112.428 99.9412 134.5 69.0133 134.5C38.0853 134.5 24.5133 96 25.0133 81.5C25.5133 67 38.0854 33 69.0133 33Z" fill="#D9B08B"/>
<path d="M66 33C58.3833 33 50.8412 34.3062 43.8044 36.8441C36.7675 39.3819 30.3736 43.1017 24.9878 47.7911C19.602 52.4805 15.3298 58.0475 12.415 64.1745C9.50021 70.3014 8 76.8682 8 83.5C8 90.1318 9.50022 96.6986 12.415 102.826C15.3298 108.952 19.602 114.52 24.9878 119.209C30.3736 123.898 36.7675 127.618 43.8044 130.156C50.8412 132.694 58.3833 134 66 134L66 83.5L66 33Z" fill="#E3CB73"/>
<path d="M201.5 69C192 69 203.598 85.5 192 85.5C180.402 85.5 177.5 82.6731 177.5 65C177.5 47.3269 207.902 20 219.5 20C231.098 20 201.5 51.3269 201.5 69Z" fill="#D9B08B"/>
<path d="M202 89.5C192.5 89.5 204.098 73 192.5 73C180.902 73 178 75.8269 178 93.5C178 111.173 208.402 138.5 220 138.5C231.598 138.5 202 107.173 202 89.5Z" fill="#D9B08B"/>
<path d="M113.5 33C113.5 39.3513 107.008 44.5 99 44.5C90.9919 44.5 72.5 39.3513 72.5 33C72.5 26.6487 108.992 0.5 117 0.5C125.008 0.5 109 25.5 113.5 33Z" fill="#D9B08B"/>
<path d="M113.5 33C113.5 39.3513 107.008 44.5 99 44.5C90.9919 44.5 72.5 39.3513 72.5 33C72.5 26.6487 108.992 0.5 117 0.5C125.008 0.5 109 25.5 113.5 33Z" fill="#D9B08B"/>
<path d="M92.1578 133.75C92.1578 130.574 88.9661 128 85.0289 128C81.0916 128 72 130.574 72 133.75C72 136.926 89.9414 150 93.8786 150C97.8159 150 89.9454 137.5 92.1578 133.75Z" fill="#D9B08B"/>
<path d="M92.1578 133.75C92.1578 130.574 88.9661 128 85.0289 128C81.0916 128 72 130.574 72 133.75C72 136.926 89.9414 150 93.8786 150C97.8159 150 89.9454 137.5 92.1578 133.75Z" fill="#D9B08B"/>
<path d="M30.1748 68.6444C27.73 67.2798 25.0864 67.1395 22.3247 67.352C20.4759 67.4942 19.7908 71.2292 21.9896 71.2292C24.8452 71.2292 21.7325 67.6715 21.5588 70.7984C21.5014 71.8313 21.3863 72.5216 22.6119 72.5216C23.5994 72.5216 23.1461 71.436 23.7128 70.7984C24.9212 69.4389 22.0188 68.3945 21.0323 70.3676C20.0164 72.3993 22.8178 73.5327 24.0479 71.9951C24.3841 71.5747 23.7746 70.1345 24.383 69.9607C24.9636 69.7948 25.8271 70.1235 25.8668 70.7984C25.9714 72.5756 24.4129 74.0833 22.8512 72.5216" stroke="black" stroke-width="3" stroke-linecap="round"/>
<path d="M55.5921 61.3207C57.2306 66.2362 58.8379 71.1087 59.5651 76.2552C59.9686 79.1108 61.2257 82.0063 60.5703 84.9191C59.251 90.7825 53.8981 95.2957 51.2841 100.524" stroke="black" stroke-width="3" stroke-linecap="round"/>
<path d="M60.7617 64.3363C62.4336 71.5191 64.6389 78.776 64.6389 86.2115C64.6389 88.9133 64.2081 91.5772 64.2081 94.2771C64.2081 95.6461 62.4414 97.2756 61.8866 98.5133C61.2041 100.036 60.1687 101.117 59.0385 102.247" stroke="black" stroke-width="3" stroke-linecap="round"/>
<path d="M7.46892 91.5454C3.60067 89.5745 -1.24219 91.9791 1.29873 86.9922C3.83966 82.0054 8.04458 84.1847 11.9128 86.1557C15.7811 88.1266 19.361 89.0591 16.82 94.0459C14.2791 99.0328 11.3372 93.5164 7.46892 91.5454Z" fill="#AF7777"/>
<path d="M8.15895 92.7339C4.47974 94.7316 -0.275332 92.4881 2.33337 97.2927C4.94208 102.097 8.94038 99.89 12.6196 97.8924C16.2988 95.8947 19.731 94.9142 17.1223 90.1096C14.5136 85.305 11.8382 90.7363 8.15895 92.7339Z" fill="#AF7777"/>
</svg>
