<svg width="253" height="150" viewBox="0 0 253 150" fill="none" xmlns="http://www.w3.org/2000/svg">
<path d="M0 98.9995L0.0968998 87.8959L43.3186 90.8509L75.594 88.5547L75.5144 97.6756L38.3965 97.3516L0 98.9995Z" fill="#F2F3E1"/>
<line y1="-0.5" x2="7.1474" y2="-0.5" transform="matrix(-0.041704 -0.99913 0.998631 -0.0523081 42.1769 97.7812)" stroke="#A99191"/>
<line y1="-0.5" x2="7.1474" y2="-0.5" transform="matrix(-0.041704 -0.99913 0.998631 -0.0523081 42.1769 97.7812)" stroke="#A99191"/>
<line y1="-0.5" x2="7.1474" y2="-0.5" transform="matrix(-0.041704 -0.99913 0.998631 -0.0523081 42.8976 97.7875)" stroke="#A99191"/>
<line y1="-0.5" x2="7.1474" y2="-0.5" transform="matrix(-0.041704 -0.99913 0.998631 -0.0523081 42.5407 97.3878)" stroke="#A99191"/>
<path d="M41.5661 89.2022C41.28 89.2759 40.8169 89.2326 40.8066 89.6433C40.7889 90.3442 40.8883 91.0468 41.0338 91.7277C41.1189 92.1259 41.1529 92.1892 41.5276 92.13C41.8512 92.079 42.2301 92.0007 42.4164 91.6758C42.6815 91.2135 42.7472 90.3739 42.5483 89.8789C42.4113 89.5377 42.2614 89.5204 41.9841 89.412C41.5287 89.2339 41.0567 88.3991 41.1254 87.8906C41.1612 87.6255 41.2664 87.3823 41.3162 87.1212C41.3557 86.914 41.3321 86.6737 41.4155 86.4788C41.4965 86.2894 41.9643 86.3889 42.1137 86.3925C42.8629 86.411 43.247 87.1429 42.6829 87.7763C42.4675 88.0182 42.3318 88.0533 42.3287 88.4058C42.323 89.0585 42.3968 89.1815 42.9912 89.4563C43.7384 89.8018 44.399 90.3005 45.1181 90.7044C45.2088 90.7553 44.6521 90.4952 44.5812 90.4367C44.0166 89.9711 43.4757 89.479 42.9046 89.022" stroke="#C4B6AF" stroke-width="3" stroke-linecap="round"/>
<path d="M42.7917 88.6372C43.0856 88.5752 43.3338 88.4369 43.6083 88.3103C44.0358 88.1133 44.4949 87.956 44.9084 87.7282C45.0988 87.6233 45.5422 87.254 45.0708 87.2499" stroke="#C4B6AF" stroke-width="3" stroke-linecap="round"/>
<path d="M99.0133 32.5C129.941 32.5 218.513 50.0721 218.513 81C218.513 111.928 129.941 134 99.0133 134C68.0853 134 54.5133 95.5 55.0133 81C55.5133 66.5 68.0854 32.5 99.0133 32.5Z" fill="#D9B08B"/>
<path d="M96 32.5C88.3833 32.5 80.8412 33.8062 73.8044 36.3441C66.7675 38.8819 60.3736 42.6017 54.9878 47.2911C49.602 51.9805 45.3298 57.5475 42.415 63.6745C39.5002 69.8014 38 76.3682 38 83C38 89.6318 39.5002 96.1986 42.415 102.326C45.3298 108.452 49.602 114.02 54.9878 118.709C60.3736 123.398 66.7675 127.118 73.8044 129.656C80.8412 132.194 88.3833 133.5 96 133.5L96 83L96 32.5Z" fill="#E3CB73"/>
<path d="M231.5 68.5C222 68.5 233.598 85 222 85C210.402 85 207.5 82.1731 207.5 64.5C207.5 46.8269 237.902 19.5 249.5 19.5C261.098 19.5 231.5 50.8269 231.5 68.5Z" fill="#D9B08B"/>
<path d="M232 89C222.5 89 234.098 72.5 222.5 72.5C210.902 72.5 208 75.3269 208 93C208 110.673 238.402 138 250 138C261.598 138 232 106.673 232 89Z" fill="#D9B08B"/>
<path d="M143.5 32.5C143.5 38.8513 137.008 44 129 44C120.992 44 102.5 38.8513 102.5 32.5C102.5 26.1487 138.992 0 147 0C155.008 0 139 25 143.5 32.5Z" fill="#D9B08B"/>
<path d="M143.5 32.5C143.5 38.8513 137.008 44 129 44C120.992 44 102.5 38.8513 102.5 32.5C102.5 26.1487 138.992 0 147 0C155.008 0 139 25 143.5 32.5Z" fill="#D9B08B"/>
<path d="M122.158 133.25C122.158 130.074 118.966 127.5 115.029 127.5C111.092 127.5 102 130.074 102 133.25C102 136.426 119.941 149.5 123.879 149.5C127.816 149.5 119.945 137 122.158 133.25Z" fill="#D9B08B"/>
<path d="M122.158 133.25C122.158 130.074 118.966 127.5 115.029 127.5C111.092 127.5 102 130.074 102 133.25C102 136.426 119.941 149.5 123.879 149.5C127.816 149.5 119.945 137 122.158 133.25Z" fill="#D9B08B"/>
<path d="M60.1748 68.1444C57.73 66.7798 55.0864 66.6395 52.3247 66.852C50.4759 66.9942 49.7908 70.7292 51.9896 70.7292C54.8452 70.7292 51.7325 67.1715 51.5588 70.2984C51.5014 71.3313 51.3863 72.0216 52.6119 72.0216C53.5994 72.0216 53.1461 70.936 53.7128 70.2984C54.9212 68.9389 52.0188 67.8945 51.0323 69.8676C50.0164 71.8993 52.8178 73.0327 54.0479 71.4951C54.3841 71.0747 53.7746 69.6345 54.383 69.4607C54.9636 69.2948 55.8271 69.6235 55.8668 70.2984C55.9714 72.0756 54.4129 73.5833 52.8512 72.0216" stroke="black" stroke-width="3" stroke-linecap="round"/>
<path d="M85.5921 60.8207C87.2306 65.7362 88.8379 70.6087 89.5651 75.7552C89.9686 78.6108 91.2257 81.5063 90.5703 84.4191C89.251 90.2825 83.8981 94.7957 81.2841 100.024" stroke="black" stroke-width="3" stroke-linecap="round"/>
<path d="M90.7617 63.8363C92.4336 71.0191 94.6389 78.276 94.6389 85.7115C94.6389 88.4133 94.2081 91.0772 94.2081 93.7771C94.2081 95.1461 92.4414 96.7756 91.8866 98.0133C91.2041 99.5358 90.1687 100.617 89.0385 101.747" stroke="black" stroke-width="3" stroke-linecap="round"/>
<path d="M37.4689 91.0454C33.6007 89.0745 28.7578 91.4791 31.2987 86.4922C33.8397 81.5054 38.0446 83.6847 41.9128 85.6557C45.7811 87.6266 49.361 88.5591 46.82 93.5459C44.2791 98.5328 41.3372 93.0164 37.4689 91.0454Z" fill="#AF7777"/>
<path d="M38.1589 92.2339C34.4797 94.2316 29.7247 91.9881 32.3334 96.7927C34.9421 101.597 38.9404 99.39 42.6196 97.3924C46.2988 95.3947 49.731 94.4142 47.1223 89.6096C44.5136 84.805 41.8382 90.2363 38.1589 92.2339Z" fill="#AF7777"/>
</svg>
