<svg width="1567" height="1054" viewBox="0 0 1567 1054" fill="none" xmlns="http://www.w3.org/2000/svg">
<g clip-path="url(#clip0_36_36)">
<rect width="1567" height="1054" fill="#B8D1E3" fill-opacity="0.5"/>
<rect width="1567" height="1054" fill="#CEE7F2" fill-opacity="0.5"/>
<path d="M1625 816.5C1625 984.118 1234.37 1120 752.5 1120C270.632 1120 -120 984.118 -120 816.5C-120 648.882 -59.9809 513 752.5 513C1604.44 513 1625 648.882 1625 816.5Z" fill="#614747"/>
<path d="M1625 855.5C1625 1023.12 1234.37 1159 752.5 1159C270.632 1159 -120 1023.12 -120 855.5C-120 687.882 -59.9809 552 752.5 552C1604.44 552 1625 687.882 1625 855.5Z" fill="#7B5757"/>
<path d="M1625 1119.5C1625 1287.12 1234.37 1423 752.5 1423C270.632 1423 -120 1287.12 -120 1119.5C-120 951.882 -59.9809 816 752.5 816C1604.44 816 1625 951.882 1625 1119.5Z" fill="#745353"/>
<rect x="997" width="33" height="953" fill="#775A5A"/>
</g>
<defs>
<clipPath id="clip0_36_36">
<rect width="1567" height="1054" fill="white"/>
</clipPath>
</defs>
</svg>
