<svg width="744" height="438" viewBox="0 0 744 438" fill="none" xmlns="http://www.w3.org/2000/svg">
<ellipse cx="420.5" cy="180" rx="323.5" ry="180" fill="#C4C4C4"/>
<path d="M239.484 134H234.406L249.094 94H254.094L268.781 134H263.703L251.75 100.328H251.438L239.484 134ZM241.359 118.375H261.828V122.672H241.359V118.375ZM274.387 134V104H278.84V108.531H279.152C279.699 107.047 280.689 105.842 282.121 104.918C283.553 103.993 285.168 103.531 286.965 103.531C287.303 103.531 287.727 103.538 288.234 103.551C288.742 103.564 289.126 103.583 289.387 103.609V108.297C289.23 108.258 288.872 108.199 288.313 108.121C287.766 108.03 287.186 107.984 286.574 107.984C285.116 107.984 283.814 108.29 282.668 108.902C281.535 109.501 280.637 110.335 279.973 111.402C279.322 112.457 278.996 113.661 278.996 115.016V134H274.387ZM306.047 145.875C303.82 145.875 301.906 145.589 300.305 145.016C298.703 144.456 297.368 143.714 296.301 142.789C295.246 141.878 294.406 140.901 293.781 139.859L297.453 137.281C297.87 137.828 298.397 138.453 299.035 139.156C299.673 139.872 300.546 140.491 301.652 141.012C302.772 141.546 304.237 141.812 306.047 141.812C308.469 141.812 310.467 141.227 312.043 140.055C313.618 138.883 314.406 137.047 314.406 134.547V128.453H314.016C313.677 129 313.195 129.677 312.57 130.484C311.958 131.279 311.073 131.988 309.914 132.613C308.768 133.225 307.219 133.531 305.266 133.531C302.844 133.531 300.669 132.958 298.742 131.813C296.828 130.667 295.311 129 294.191 126.812C293.085 124.625 292.531 121.969 292.531 118.844C292.531 115.771 293.072 113.095 294.152 110.816C295.233 108.525 296.737 106.754 298.664 105.504C300.591 104.241 302.818 103.609 305.344 103.609C307.297 103.609 308.846 103.935 309.992 104.586C311.151 105.224 312.036 105.953 312.648 106.773C313.273 107.581 313.755 108.245 314.094 108.766H314.563V104H319.016V134.859C319.016 137.438 318.43 139.534 317.258 141.148C316.099 142.776 314.536 143.967 312.57 144.723C310.617 145.491 308.443 145.875 306.047 145.875ZM305.891 129.391C307.74 129.391 309.302 128.967 310.578 128.121C311.854 127.275 312.824 126.057 313.488 124.469C314.152 122.88 314.484 120.979 314.484 118.766C314.484 116.604 314.159 114.697 313.508 113.043C312.857 111.389 311.893 110.094 310.617 109.156C309.341 108.219 307.766 107.75 305.891 107.75C303.938 107.75 302.31 108.245 301.008 109.234C299.719 110.224 298.749 111.552 298.098 113.219C297.46 114.885 297.141 116.734 297.141 118.766C297.141 120.849 297.466 122.691 298.117 124.293C298.781 125.882 299.758 127.132 301.047 128.043C302.349 128.941 303.964 129.391 305.891 129.391ZM332.063 115.953V134H327.453V94H332.063V108.687H332.453C333.156 107.138 334.211 105.908 335.617 104.996C337.036 104.072 338.924 103.609 341.281 103.609C343.326 103.609 345.116 104.02 346.652 104.84C348.189 105.647 349.38 106.891 350.227 108.57C351.086 110.237 351.516 112.359 351.516 114.938V134H346.906V115.25C346.906 112.867 346.288 111.025 345.051 109.723C343.827 108.408 342.128 107.75 339.953 107.75C338.443 107.75 337.089 108.069 335.891 108.707C334.706 109.345 333.768 110.276 333.078 111.5C332.401 112.724 332.063 114.208 332.063 115.953ZM364.558 115.953V134H359.948V94H364.558V108.687H364.948C365.651 107.138 366.706 105.908 368.112 104.996C369.532 104.072 371.42 103.609 373.776 103.609C375.821 103.609 377.611 104.02 379.147 104.84C380.684 105.647 381.875 106.891 382.722 108.57C383.581 110.237 384.011 112.359 384.011 114.938V134H379.401V115.25C379.401 112.867 378.783 111.025 377.546 109.723C376.322 108.408 374.623 107.75 372.448 107.75C370.938 107.75 369.584 108.069 368.386 108.707C367.201 109.345 366.263 110.276 365.573 111.5C364.896 112.724 364.558 114.208 364.558 115.953ZM398.537 94L398.146 122.75H393.615L393.225 94H398.537ZM395.881 134.313C394.917 134.313 394.09 133.967 393.4 133.277C392.71 132.587 392.365 131.76 392.365 130.797C392.365 129.833 392.71 129.007 393.4 128.316C394.09 127.626 394.917 127.281 395.881 127.281C396.844 127.281 397.671 127.626 398.361 128.316C399.051 129.007 399.396 129.833 399.396 130.797C399.396 131.435 399.234 132.021 398.908 132.555C398.596 133.089 398.173 133.518 397.639 133.844C397.118 134.156 396.532 134.313 395.881 134.313ZM428.688 94V134H423.845V94H428.688ZM441.838 94V97.5156C441.838 98.5833 441.643 99.7227 441.252 100.934C440.874 102.132 440.314 103.297 439.572 104.43C438.843 105.549 437.958 106.526 436.916 107.359L434.416 105.328C435.236 104.156 435.946 102.939 436.545 101.676C437.157 100.4 437.463 99.0391 437.463 97.5938V94H441.838ZM446.745 134V104H451.198V108.687H451.589C452.214 107.086 453.223 105.842 454.616 104.957C456.009 104.059 457.683 103.609 459.636 103.609C461.615 103.609 463.262 104.059 464.577 104.957C465.905 105.842 466.94 107.086 467.683 108.687H467.995C468.763 107.138 469.916 105.908 471.452 104.996C472.989 104.072 474.831 103.609 476.979 103.609C479.662 103.609 481.856 104.449 483.562 106.129C485.267 107.796 486.12 110.393 486.12 113.922V134H481.511V113.922C481.511 111.708 480.905 110.126 479.694 109.176C478.483 108.225 477.058 107.75 475.417 107.75C473.308 107.75 471.674 108.388 470.515 109.664C469.356 110.927 468.776 112.529 468.776 114.469V134H464.089V113.453C464.089 111.747 463.535 110.374 462.429 109.332C461.322 108.277 459.896 107.75 458.151 107.75C456.953 107.75 455.834 108.069 454.792 108.707C453.763 109.345 452.93 110.23 452.292 111.363C451.667 112.483 451.354 113.779 451.354 115.25V134H446.745ZM512.985 145.25C512.204 145.25 511.507 145.185 510.896 145.055C510.284 144.938 509.86 144.82 509.626 144.703L510.798 140.641C511.918 140.927 512.907 141.031 513.767 140.953C514.626 140.875 515.388 140.491 516.052 139.801C516.729 139.124 517.347 138.023 517.907 136.5L518.767 134.156L507.673 104H512.673L520.954 127.906H521.267L529.548 104H534.548L521.813 138.375C521.241 139.924 520.531 141.207 519.685 142.223C518.838 143.251 517.855 144.013 516.735 144.508C515.629 145.003 514.379 145.25 512.985 145.25ZM552.136 134.625C549.245 134.625 546.752 133.987 544.655 132.711C542.572 131.422 540.964 129.625 539.831 127.32C538.711 125.003 538.151 122.307 538.151 119.234C538.151 116.161 538.711 113.453 539.831 111.109C540.964 108.753 542.539 106.917 544.558 105.602C546.589 104.273 548.959 103.609 551.667 103.609C553.229 103.609 554.772 103.87 556.296 104.391C557.819 104.911 559.206 105.758 560.456 106.93C561.706 108.089 562.702 109.625 563.444 111.539C564.187 113.453 564.558 115.81 564.558 118.609V120.562H541.433V116.578H559.87C559.87 114.885 559.532 113.375 558.854 112.047C558.19 110.719 557.24 109.671 556.003 108.902C554.779 108.134 553.334 107.75 551.667 107.75C549.831 107.75 548.243 108.206 546.901 109.117C545.573 110.016 544.551 111.187 543.835 112.633C543.119 114.078 542.761 115.628 542.761 117.281V119.938C542.761 122.203 543.151 124.124 543.933 125.699C544.727 127.262 545.827 128.453 547.233 129.273C548.64 130.081 550.274 130.484 552.136 130.484C553.347 130.484 554.44 130.315 555.417 129.977C556.407 129.625 557.259 129.104 557.976 128.414C558.692 127.711 559.245 126.839 559.636 125.797L564.089 127.047C563.62 128.557 562.832 129.885 561.726 131.031C560.619 132.164 559.252 133.049 557.624 133.687C555.996 134.313 554.167 134.625 552.136 134.625ZM237.219 201V171H241.672V175.687H242.063C242.688 174.086 243.697 172.842 245.09 171.957C246.483 171.059 248.156 170.609 250.109 170.609C252.089 170.609 253.736 171.059 255.051 171.957C256.379 172.842 257.414 174.086 258.156 175.687H258.469C259.237 174.138 260.389 172.908 261.926 171.996C263.462 171.072 265.305 170.609 267.453 170.609C270.135 170.609 272.329 171.449 274.035 173.129C275.741 174.796 276.594 177.393 276.594 180.922V201H271.984V180.922C271.984 178.708 271.379 177.126 270.168 176.176C268.957 175.225 267.531 174.75 265.891 174.75C263.781 174.75 262.147 175.388 260.988 176.664C259.829 177.927 259.25 179.529 259.25 181.469V201H254.563V180.453C254.563 178.747 254.009 177.374 252.902 176.332C251.796 175.277 250.37 174.75 248.625 174.75C247.427 174.75 246.307 175.069 245.266 175.707C244.237 176.345 243.404 177.23 242.766 178.363C242.141 179.483 241.828 180.779 241.828 182.25V201H237.219ZM285.021 201V171H289.631V201H285.021ZM287.365 166C286.467 166 285.692 165.694 285.041 165.082C284.403 164.47 284.084 163.734 284.084 162.875C284.084 162.016 284.403 161.28 285.041 160.668C285.692 160.056 286.467 159.75 287.365 159.75C288.264 159.75 289.032 160.056 289.67 160.668C290.321 161.28 290.646 162.016 290.646 162.875C290.646 163.734 290.321 164.47 289.67 165.082C289.032 165.694 288.264 166 287.365 166ZM310.183 212.875C307.956 212.875 306.042 212.589 304.44 212.016C302.839 211.456 301.504 210.714 300.437 209.789C299.382 208.878 298.542 207.901 297.917 206.859L301.589 204.281C302.006 204.828 302.533 205.453 303.171 206.156C303.809 206.872 304.681 207.491 305.788 208.012C306.908 208.546 308.373 208.812 310.183 208.812C312.604 208.812 314.603 208.227 316.179 207.055C317.754 205.883 318.542 204.047 318.542 201.547V195.453H318.151C317.813 196 317.331 196.677 316.706 197.484C316.094 198.279 315.209 198.988 314.05 199.613C312.904 200.225 311.354 200.531 309.401 200.531C306.979 200.531 304.805 199.958 302.878 198.813C300.964 197.667 299.447 196 298.327 193.812C297.22 191.625 296.667 188.969 296.667 185.844C296.667 182.771 297.207 180.095 298.288 177.816C299.369 175.525 300.873 173.754 302.8 172.504C304.727 171.241 306.953 170.609 309.479 170.609C311.433 170.609 312.982 170.935 314.128 171.586C315.287 172.224 316.172 172.953 316.784 173.773C317.409 174.581 317.891 175.245 318.229 175.766H318.698V171H323.151V201.859C323.151 204.438 322.565 206.534 321.394 208.148C320.235 209.776 318.672 210.967 316.706 211.723C314.753 212.491 312.578 212.875 310.183 212.875ZM310.026 196.391C311.875 196.391 313.438 195.967 314.714 195.121C315.99 194.275 316.96 193.057 317.624 191.469C318.288 189.88 318.62 187.979 318.62 185.766C318.62 183.604 318.295 181.697 317.644 180.043C316.993 178.389 316.029 177.094 314.753 176.156C313.477 175.219 311.901 174.75 310.026 174.75C308.073 174.75 306.446 175.245 305.144 176.234C303.854 177.224 302.884 178.552 302.233 180.219C301.595 181.885 301.276 183.734 301.276 185.766C301.276 187.849 301.602 189.691 302.253 191.293C302.917 192.882 303.894 194.132 305.183 195.043C306.485 195.941 308.099 196.391 310.026 196.391ZM336.198 182.953V201H331.589V161H336.198V175.687H336.589C337.292 174.138 338.347 172.908 339.753 171.996C341.172 171.072 343.06 170.609 345.417 170.609C347.461 170.609 349.252 171.02 350.788 171.84C352.325 172.647 353.516 173.891 354.362 175.57C355.222 177.237 355.651 179.359 355.651 181.938V201H351.042V182.25C351.042 179.867 350.424 178.025 349.187 176.723C347.963 175.408 346.263 174.75 344.089 174.75C342.578 174.75 341.224 175.069 340.026 175.707C338.841 176.345 337.904 177.276 337.214 178.5C336.537 179.724 336.198 181.208 336.198 182.953ZM377.131 171V174.906H361.584V171H377.131ZM366.115 163.812H370.725V192.406C370.725 193.708 370.913 194.685 371.291 195.336C371.682 195.974 372.176 196.404 372.775 196.625C373.387 196.833 374.032 196.937 374.709 196.937C375.217 196.937 375.633 196.911 375.959 196.859C376.285 196.794 376.545 196.742 376.74 196.703L377.678 200.844C377.365 200.961 376.929 201.078 376.369 201.195C375.809 201.326 375.1 201.391 374.24 201.391C372.938 201.391 371.662 201.111 370.412 200.551C369.175 199.991 368.146 199.138 367.326 197.992C366.519 196.846 366.115 195.401 366.115 193.656V163.812ZM387.033 212.25C386.252 212.25 385.555 212.185 384.943 212.055C384.331 211.938 383.908 211.82 383.674 211.703L384.846 207.641C385.965 207.927 386.955 208.031 387.814 207.953C388.674 207.875 389.436 207.491 390.1 206.801C390.777 206.124 391.395 205.023 391.955 203.5L392.814 201.156L381.721 171H386.721L395.002 194.906H395.314L403.596 171H408.596L395.861 205.375C395.288 206.924 394.579 208.207 393.732 209.223C392.886 210.251 391.903 211.013 390.783 211.508C389.676 212.003 388.426 212.25 387.033 212.25ZM430.773 201V161H444.289C447.427 161 449.992 161.566 451.984 162.699C453.99 163.819 455.474 165.336 456.438 167.25C457.401 169.164 457.883 171.299 457.883 173.656C457.883 176.013 457.401 178.155 456.438 180.082C455.487 182.009 454.016 183.546 452.023 184.691C450.031 185.824 447.479 186.391 444.367 186.391H434.68V182.094H444.211C446.359 182.094 448.085 181.723 449.387 180.98C450.689 180.238 451.633 179.236 452.219 177.973C452.818 176.697 453.117 175.258 453.117 173.656C453.117 172.055 452.818 170.622 452.219 169.359C451.633 168.096 450.682 167.107 449.367 166.391C448.052 165.661 446.307 165.297 444.133 165.297H435.617V201H430.773ZM465.061 201V171H469.67V201H465.061ZM467.404 166C466.506 166 465.731 165.694 465.08 165.082C464.442 164.47 464.123 163.734 464.123 162.875C464.123 162.016 464.442 161.28 465.08 160.668C465.731 160.056 466.506 159.75 467.404 159.75C468.303 159.75 469.071 160.056 469.709 160.668C470.36 161.28 470.686 162.016 470.686 162.875C470.686 163.734 470.36 164.47 469.709 165.082C469.071 165.694 468.303 166 467.404 166ZM478.112 201V171H482.565V175.531H482.878C483.425 174.047 484.414 172.842 485.847 171.918C487.279 170.993 488.894 170.531 490.69 170.531C491.029 170.531 491.452 170.538 491.96 170.551C492.468 170.564 492.852 170.583 493.112 170.609V175.297C492.956 175.258 492.598 175.199 492.038 175.121C491.491 175.03 490.912 174.984 490.3 174.984C488.841 174.984 487.539 175.29 486.394 175.902C485.261 176.501 484.362 177.335 483.698 178.402C483.047 179.457 482.722 180.661 482.722 182.016V201H478.112ZM507.404 201.703C505.503 201.703 503.778 201.345 502.229 200.629C500.679 199.9 499.449 198.852 498.537 197.484C497.626 196.104 497.17 194.437 497.17 192.484C497.17 190.766 497.508 189.372 498.186 188.305C498.863 187.224 499.768 186.378 500.9 185.766C502.033 185.154 503.283 184.698 504.65 184.398C506.031 184.086 507.417 183.839 508.811 183.656C510.633 183.422 512.111 183.246 513.244 183.129C514.39 182.999 515.223 182.784 515.744 182.484C516.278 182.185 516.545 181.664 516.545 180.922V180.766C516.545 178.839 516.018 177.341 514.963 176.273C513.921 175.206 512.339 174.672 510.217 174.672C508.016 174.672 506.291 175.154 505.041 176.117C503.791 177.081 502.912 178.109 502.404 179.203L498.029 177.641C498.811 175.818 499.852 174.398 501.154 173.383C502.469 172.354 503.902 171.638 505.451 171.234C507.014 170.818 508.55 170.609 510.061 170.609C511.024 170.609 512.131 170.727 513.381 170.961C514.644 171.182 515.861 171.645 517.033 172.348C518.218 173.051 519.201 174.112 519.982 175.531C520.764 176.951 521.154 178.852 521.154 181.234V201H516.545V196.937H516.311C515.998 197.589 515.477 198.285 514.748 199.027C514.019 199.77 513.049 200.401 511.838 200.922C510.627 201.443 509.149 201.703 507.404 201.703ZM508.107 197.562C509.93 197.562 511.467 197.204 512.717 196.488C513.98 195.772 514.93 194.848 515.568 193.715C516.219 192.582 516.545 191.391 516.545 190.141V185.922C516.35 186.156 515.92 186.371 515.256 186.566C514.605 186.749 513.85 186.911 512.99 187.055C512.144 187.185 511.317 187.302 510.51 187.406C509.715 187.497 509.071 187.576 508.576 187.641C507.378 187.797 506.258 188.051 505.217 188.402C504.188 188.741 503.355 189.255 502.717 189.945C502.092 190.622 501.779 191.547 501.779 192.719C501.779 194.32 502.372 195.531 503.557 196.352C504.755 197.159 506.271 197.562 508.107 197.562ZM542.614 171V174.906H527.067V171H542.614ZM531.599 163.812H536.208V192.406C536.208 193.708 536.397 194.685 536.774 195.336C537.165 195.974 537.66 196.404 538.259 196.625C538.871 196.833 539.515 196.937 540.192 196.937C540.7 196.937 541.117 196.911 541.442 196.859C541.768 196.794 542.028 196.742 542.224 196.703L543.161 200.844C542.849 200.961 542.412 201.078 541.853 201.195C541.293 201.326 540.583 201.391 539.724 201.391C538.422 201.391 537.146 201.111 535.896 200.551C534.659 199.991 533.63 199.138 532.81 197.992C532.002 196.846 531.599 195.401 531.599 193.656V163.812ZM561.804 201.625C558.913 201.625 556.42 200.987 554.323 199.711C552.24 198.422 550.632 196.625 549.499 194.32C548.379 192.003 547.819 189.307 547.819 186.234C547.819 183.161 548.379 180.453 549.499 178.109C550.632 175.753 552.207 173.917 554.226 172.602C556.257 171.273 558.627 170.609 561.335 170.609C562.897 170.609 564.44 170.87 565.964 171.391C567.487 171.911 568.874 172.758 570.124 173.93C571.374 175.089 572.37 176.625 573.112 178.539C573.854 180.453 574.226 182.81 574.226 185.609V187.562H551.101V183.578H569.538C569.538 181.885 569.2 180.375 568.522 179.047C567.858 177.719 566.908 176.671 565.671 175.902C564.447 175.134 563.002 174.75 561.335 174.75C559.499 174.75 557.91 175.206 556.569 176.117C555.241 177.016 554.219 178.187 553.503 179.633C552.787 181.078 552.429 182.628 552.429 184.281V186.938C552.429 189.203 552.819 191.124 553.601 192.699C554.395 194.262 555.495 195.453 556.901 196.273C558.308 197.081 559.942 197.484 561.804 197.484C563.015 197.484 564.108 197.315 565.085 196.977C566.075 196.625 566.927 196.104 567.644 195.414C568.36 194.711 568.913 193.839 569.304 192.797L573.757 194.047C573.288 195.557 572.5 196.885 571.394 198.031C570.287 199.164 568.92 200.049 567.292 200.687C565.664 201.313 563.835 201.625 561.804 201.625ZM270.031 240.5H265.188C264.901 239.107 264.4 237.883 263.684 236.828C262.98 235.773 262.121 234.888 261.105 234.172C260.103 233.443 258.99 232.896 257.766 232.531C256.542 232.167 255.266 231.984 253.938 231.984C251.516 231.984 249.322 232.596 247.355 233.82C245.402 235.044 243.846 236.848 242.688 239.23C241.542 241.613 240.969 244.536 240.969 248C240.969 251.464 241.542 254.387 242.688 256.77C243.846 259.152 245.402 260.956 247.355 262.18C249.322 263.404 251.516 264.016 253.938 264.016C255.266 264.016 256.542 263.833 257.766 263.469C258.99 263.104 260.103 262.564 261.105 261.848C262.121 261.118 262.98 260.227 263.684 259.172C264.4 258.104 264.901 256.88 265.188 255.5H270.031C269.667 257.544 269.003 259.374 268.039 260.988C267.076 262.603 265.878 263.977 264.445 265.109C263.013 266.229 261.405 267.082 259.621 267.668C257.85 268.254 255.956 268.547 253.938 268.547C250.526 268.547 247.492 267.714 244.836 266.047C242.18 264.38 240.09 262.01 238.566 258.937C237.043 255.865 236.281 252.219 236.281 248C236.281 243.781 237.043 240.135 238.566 237.062C240.09 233.99 242.18 231.62 244.836 229.953C247.492 228.286 250.526 227.453 253.938 227.453C255.956 227.453 257.85 227.746 259.621 228.332C261.405 228.918 263.013 229.777 264.445 230.91C265.878 232.03 267.076 233.397 268.039 235.012C269.003 236.613 269.667 238.443 270.031 240.5ZM286.062 268.703C284.16 268.703 282.435 268.345 280.886 267.629C279.336 266.9 278.106 265.852 277.194 264.484C276.283 263.104 275.827 261.437 275.827 259.484C275.827 257.766 276.166 256.372 276.843 255.305C277.52 254.224 278.425 253.378 279.558 252.766C280.69 252.154 281.94 251.698 283.308 251.398C284.688 251.086 286.075 250.839 287.468 250.656C289.291 250.422 290.769 250.246 291.901 250.129C293.047 249.999 293.881 249.784 294.401 249.484C294.935 249.185 295.202 248.664 295.202 247.922V247.766C295.202 245.839 294.675 244.341 293.62 243.273C292.578 242.206 290.996 241.672 288.874 241.672C286.674 241.672 284.948 242.154 283.698 243.117C282.448 244.081 281.569 245.109 281.062 246.203L276.687 244.641C277.468 242.818 278.509 241.398 279.812 240.383C281.127 239.354 282.559 238.638 284.108 238.234C285.671 237.818 287.207 237.609 288.718 237.609C289.681 237.609 290.788 237.727 292.038 237.961C293.301 238.182 294.519 238.645 295.69 239.348C296.875 240.051 297.858 241.112 298.64 242.531C299.421 243.951 299.812 245.852 299.812 248.234V268H295.202V263.937H294.968C294.655 264.589 294.134 265.285 293.405 266.027C292.676 266.77 291.706 267.401 290.495 267.922C289.284 268.443 287.806 268.703 286.062 268.703ZM286.765 264.562C288.588 264.562 290.124 264.204 291.374 263.488C292.637 262.772 293.588 261.848 294.226 260.715C294.877 259.582 295.202 258.391 295.202 257.141V252.922C295.007 253.156 294.577 253.371 293.913 253.566C293.262 253.749 292.507 253.911 291.647 254.055C290.801 254.185 289.974 254.302 289.167 254.406C288.373 254.497 287.728 254.576 287.233 254.641C286.035 254.797 284.916 255.051 283.874 255.402C282.845 255.741 282.012 256.255 281.374 256.945C280.749 257.622 280.437 258.547 280.437 259.719C280.437 261.32 281.029 262.531 282.214 263.352C283.412 264.159 284.929 264.562 286.765 264.562ZM308.225 279.25V238H312.678V242.766H313.225C313.563 242.245 314.032 241.581 314.631 240.773C315.243 239.953 316.115 239.224 317.248 238.586C318.394 237.935 319.943 237.609 321.896 237.609C324.423 237.609 326.649 238.241 328.576 239.504C330.503 240.767 332.007 242.557 333.088 244.875C334.169 247.193 334.709 249.927 334.709 253.078C334.709 256.255 334.169 259.009 333.088 261.34C332.007 263.658 330.51 265.454 328.596 266.73C326.682 267.993 324.475 268.625 321.975 268.625C320.048 268.625 318.505 268.306 317.346 267.668C316.187 267.017 315.295 266.281 314.67 265.461C314.045 264.628 313.563 263.937 313.225 263.391H312.834V279.25H308.225ZM312.756 253C312.756 255.266 313.088 257.264 313.752 258.996C314.416 260.715 315.386 262.062 316.662 263.039C317.938 264.003 319.501 264.484 321.35 264.484C323.277 264.484 324.885 263.977 326.174 262.961C327.476 261.932 328.452 260.552 329.104 258.82C329.768 257.076 330.1 255.135 330.1 253C330.1 250.891 329.774 248.99 329.123 247.297C328.485 245.591 327.515 244.243 326.213 243.254C324.924 242.251 323.303 241.75 321.35 241.75C319.475 241.75 317.899 242.225 316.623 243.176C315.347 244.113 314.383 245.428 313.732 247.121C313.081 248.801 312.756 250.76 312.756 253ZM354.787 238V241.906H339.24V238H354.787ZM343.771 230.812H348.381V259.406C348.381 260.708 348.57 261.685 348.947 262.336C349.338 262.974 349.833 263.404 350.432 263.625C351.044 263.833 351.688 263.937 352.365 263.937C352.873 263.937 353.29 263.911 353.615 263.859C353.941 263.794 354.201 263.742 354.396 263.703L355.334 267.844C355.021 267.961 354.585 268.078 354.025 268.195C353.465 268.326 352.756 268.391 351.896 268.391C350.594 268.391 349.318 268.111 348.068 267.551C346.831 266.991 345.803 266.138 344.982 264.992C344.175 263.846 343.771 262.401 343.771 260.656V230.812ZM370.549 268.703C368.648 268.703 366.923 268.345 365.373 267.629C363.824 266.9 362.593 265.852 361.682 264.484C360.77 263.104 360.314 261.437 360.314 259.484C360.314 257.766 360.653 256.372 361.33 255.305C362.007 254.224 362.912 253.378 364.045 252.766C365.178 252.154 366.428 251.698 367.795 251.398C369.175 251.086 370.562 250.839 371.955 250.656C373.778 250.422 375.256 250.246 376.389 250.129C377.535 249.999 378.368 249.784 378.889 249.484C379.423 249.185 379.689 248.664 379.689 247.922V247.766C379.689 245.839 379.162 244.341 378.107 243.273C377.066 242.206 375.484 241.672 373.361 241.672C371.161 241.672 369.436 242.154 368.186 243.117C366.936 244.081 366.057 245.109 365.549 246.203L361.174 244.641C361.955 242.818 362.997 241.398 364.299 240.383C365.614 239.354 367.046 238.638 368.596 238.234C370.158 237.818 371.695 237.609 373.205 237.609C374.169 237.609 375.275 237.727 376.525 237.961C377.788 238.182 379.006 238.645 380.178 239.348C381.363 240.051 382.346 241.112 383.127 242.531C383.908 243.951 384.299 245.852 384.299 248.234V268H379.689V263.937H379.455C379.143 264.589 378.622 265.285 377.893 266.027C377.163 266.77 376.193 267.401 374.982 267.922C373.771 268.443 372.294 268.703 370.549 268.703ZM371.252 264.562C373.075 264.562 374.611 264.204 375.861 263.488C377.124 262.772 378.075 261.848 378.713 260.715C379.364 259.582 379.689 258.391 379.689 257.141V252.922C379.494 253.156 379.064 253.371 378.4 253.566C377.749 253.749 376.994 253.911 376.135 254.055C375.288 254.185 374.462 254.302 373.654 254.406C372.86 254.497 372.215 254.576 371.721 254.641C370.523 254.797 369.403 255.051 368.361 255.402C367.333 255.741 366.499 256.255 365.861 256.945C365.236 257.622 364.924 258.547 364.924 259.719C364.924 261.32 365.516 262.531 366.701 263.352C367.899 264.159 369.416 264.562 371.252 264.562ZM392.712 268V238H397.321V268H392.712ZM395.056 233C394.157 233 393.382 232.694 392.731 232.082C392.093 231.47 391.774 230.734 391.774 229.875C391.774 229.016 392.093 228.28 392.731 227.668C393.382 227.056 394.157 226.75 395.056 226.75C395.954 226.75 396.722 227.056 397.36 227.668C398.011 228.28 398.337 229.016 398.337 229.875C398.337 230.734 398.011 231.47 397.36 232.082C396.722 232.694 395.954 233 395.056 233ZM410.373 249.953V268H405.764V238H410.217V242.687H410.607C411.311 241.164 412.378 239.94 413.811 239.016C415.243 238.078 417.092 237.609 419.357 237.609C421.389 237.609 423.166 238.026 424.689 238.859C426.213 239.68 427.398 240.93 428.244 242.609C429.09 244.276 429.514 246.385 429.514 248.938V268H424.904V249.25C424.904 246.893 424.292 245.057 423.068 243.742C421.844 242.414 420.165 241.75 418.029 241.75C416.558 241.75 415.243 242.069 414.084 242.707C412.938 243.345 412.033 244.276 411.369 245.5C410.705 246.724 410.373 248.208 410.373 249.953ZM454.03 268V228H458.874V245.812H480.202V228H485.046V268H480.202V250.109H458.874V268H454.03ZM506.306 268.625C503.597 268.625 501.221 267.98 499.177 266.691C497.146 265.402 495.557 263.599 494.411 261.281C493.278 258.964 492.712 256.255 492.712 253.156C492.712 250.031 493.278 247.303 494.411 244.973C495.557 242.642 497.146 240.832 499.177 239.543C501.221 238.254 503.597 237.609 506.306 237.609C509.014 237.609 511.384 238.254 513.415 239.543C515.459 240.832 517.048 242.642 518.181 244.973C519.326 247.303 519.899 250.031 519.899 253.156C519.899 256.255 519.326 258.964 518.181 261.281C517.048 263.599 515.459 265.402 513.415 266.691C511.384 267.98 509.014 268.625 506.306 268.625ZM506.306 264.484C508.363 264.484 510.056 263.957 511.384 262.902C512.712 261.848 513.695 260.461 514.333 258.742C514.971 257.023 515.29 255.161 515.29 253.156C515.29 251.151 514.971 249.283 514.333 247.551C513.695 245.819 512.712 244.419 511.384 243.352C510.056 242.284 508.363 241.75 506.306 241.75C504.248 241.75 502.556 242.284 501.228 243.352C499.899 244.419 498.916 245.819 498.278 247.551C497.64 249.283 497.321 251.151 497.321 253.156C497.321 255.161 497.64 257.023 498.278 258.742C498.916 260.461 499.899 261.848 501.228 262.902C502.556 263.957 504.248 264.484 506.306 264.484ZM539.123 268.625C536.415 268.625 534.038 267.98 531.994 266.691C529.963 265.402 528.374 263.599 527.229 261.281C526.096 258.964 525.529 256.255 525.529 253.156C525.529 250.031 526.096 247.303 527.229 244.973C528.374 242.642 529.963 240.832 531.994 239.543C534.038 238.254 536.415 237.609 539.123 237.609C541.831 237.609 544.201 238.254 546.232 239.543C548.277 240.832 549.865 242.642 550.998 244.973C552.144 247.303 552.717 250.031 552.717 253.156C552.717 256.255 552.144 258.964 550.998 261.281C549.865 263.599 548.277 265.402 546.232 266.691C544.201 267.98 541.831 268.625 539.123 268.625ZM539.123 264.484C541.18 264.484 542.873 263.957 544.201 262.902C545.529 261.848 546.512 260.461 547.15 258.742C547.788 257.023 548.107 255.161 548.107 253.156C548.107 251.151 547.788 249.283 547.15 247.551C546.512 245.819 545.529 244.419 544.201 243.352C542.873 242.284 541.18 241.75 539.123 241.75C537.066 241.75 535.373 242.284 534.045 243.352C532.717 244.419 531.734 245.819 531.096 247.551C530.458 249.283 530.139 251.151 530.139 253.156C530.139 255.161 530.458 257.023 531.096 258.742C531.734 260.461 532.717 261.848 534.045 262.902C535.373 263.957 537.066 264.484 539.123 264.484ZM564.05 257.062L563.972 251.359H564.909L578.034 238H583.737L569.753 252.141H569.362L564.05 257.062ZM559.753 268V228H564.362V268H559.753ZM578.815 268L567.097 253.156L570.378 249.953L584.675 268H578.815ZM601.013 268.625C598.122 268.625 595.629 267.987 593.532 266.711C591.449 265.422 589.841 263.625 588.708 261.32C587.588 259.003 587.028 256.307 587.028 253.234C587.028 250.161 587.588 247.453 588.708 245.109C589.841 242.753 591.416 240.917 593.435 239.602C595.466 238.273 597.836 237.609 600.544 237.609C602.106 237.609 603.649 237.87 605.173 238.391C606.696 238.911 608.083 239.758 609.333 240.93C610.583 242.089 611.579 243.625 612.321 245.539C613.063 247.453 613.435 249.81 613.435 252.609V254.562H590.31V250.578H608.747C608.747 248.885 608.409 247.375 607.731 246.047C607.067 244.719 606.117 243.671 604.88 242.902C603.656 242.134 602.211 241.75 600.544 241.75C598.708 241.75 597.119 242.206 595.778 243.117C594.45 244.016 593.428 245.187 592.712 246.633C591.996 248.078 591.638 249.628 591.638 251.281V253.938C591.638 256.203 592.028 258.124 592.81 259.699C593.604 261.262 594.704 262.453 596.11 263.273C597.517 264.081 599.151 264.484 601.013 264.484C602.224 264.484 603.317 264.315 604.294 263.977C605.284 263.625 606.136 263.104 606.853 262.414C607.569 261.711 608.122 260.839 608.513 259.797L612.966 261.047C612.497 262.557 611.709 263.885 610.603 265.031C609.496 266.164 608.129 267.049 606.501 267.687C604.873 268.313 603.044 268.625 601.013 268.625ZM626.54 228L626.149 256.75H621.618L621.228 228H626.54ZM623.884 268.313C622.92 268.313 622.093 267.967 621.403 267.277C620.713 266.587 620.368 265.76 620.368 264.797C620.368 263.833 620.713 263.007 621.403 262.316C622.093 261.626 622.92 261.281 623.884 261.281C624.847 261.281 625.674 261.626 626.364 262.316C627.054 263.007 627.399 263.833 627.399 264.797C627.399 265.435 627.237 266.021 626.911 266.555C626.599 267.089 626.175 267.518 625.642 267.844C625.121 268.156 624.535 268.313 623.884 268.313Z" fill="black"/>
<path d="M65.5978 350.274L148.35 169.718L261.969 320.496L65.5978 350.274Z" fill="#C4C4C4"/>
</svg>
