<svg width="759" height="397" viewBox="0 0 759 397" fill="none" xmlns="http://www.w3.org/2000/svg">
<ellipse cx="435.5" cy="180" rx="323.5" ry="180" fill="white"/>
<ellipse cx="112.5" cy="323.5" rx="37.5" ry="36.5" fill="white"/>
<ellipse cx="37.5" cy="360.5" rx="37.5" ry="36.5" fill="white"/>
<path d="M393.013 137.5C423.941 137.5 512.513 155.072 512.513 186C512.513 216.928 423.941 239 393.013 239C362.085 239 348.513 200.5 349.013 186C349.513 171.5 362.085 137.5 393.013 137.5Z" fill="#D9B08B"/>
<path d="M390 137.5C382.383 137.5 374.841 138.806 367.804 141.344C360.767 143.882 354.374 147.602 348.988 152.291C343.602 156.98 339.33 162.548 336.415 168.674C333.5 174.801 332 181.368 332 188C332 194.632 333.5 201.199 336.415 207.326C339.33 213.452 343.602 219.02 348.988 223.709C354.374 228.398 360.767 232.118 367.804 234.656C374.841 237.194 382.383 238.5 390 238.5L390 188V137.5Z" fill="#E3CB73"/>
<path d="M525.5 173.5C516 173.5 527.598 190 516 190C504.402 190 501.5 187.173 501.5 169.5C501.5 151.827 531.902 124.5 543.5 124.5C555.098 124.5 525.5 155.827 525.5 173.5Z" fill="#D9B08B"/>
<path d="M526 194C516.5 194 528.098 177.5 516.5 177.5C504.902 177.5 502 180.327 502 198C502 215.673 532.402 243 544 243C555.598 243 526 211.673 526 194Z" fill="#D9B08B"/>
<path d="M437.5 137.5C437.5 143.851 431.008 149 423 149C414.992 149 396.5 143.851 396.5 137.5C396.5 131.149 432.992 105 441 105C449.008 105 433 130 437.5 137.5Z" fill="#D9B08B"/>
<path d="M437.5 137.5C437.5 143.851 431.008 149 423 149C414.992 149 396.5 143.851 396.5 137.5C396.5 131.149 432.992 105 441 105C449.008 105 433 130 437.5 137.5Z" fill="#D9B08B"/>
<path d="M416.158 238.25C416.158 235.074 412.966 232.5 409.029 232.5C405.092 232.5 396 235.074 396 238.25C396 241.426 413.941 254.5 417.879 254.5C421.816 254.5 413.945 242 416.158 238.25Z" fill="#D9B08B"/>
<path d="M416.158 238.25C416.158 235.074 412.966 232.5 409.029 232.5C405.092 232.5 396 235.074 396 238.25C396 241.426 413.941 254.5 417.879 254.5C421.816 254.5 413.945 242 416.158 238.25Z" fill="#D9B08B"/>
<path d="M354.175 173.144C351.73 171.78 349.086 171.64 346.325 171.852C344.476 171.994 343.791 175.729 345.99 175.729C348.845 175.729 345.733 172.172 345.559 175.298C345.501 176.331 345.386 177.022 346.612 177.022C347.599 177.022 347.146 175.936 347.713 175.298C348.921 173.939 346.019 172.895 345.032 174.868C344.016 176.899 346.818 178.033 348.048 176.495C348.384 176.075 347.775 174.635 348.383 174.461C348.964 174.295 349.827 174.624 349.867 175.298C349.971 177.076 348.413 178.583 346.851 177.022" stroke="black" stroke-width="3" stroke-linecap="round"/>
<path d="M379.592 165.821C381.231 170.736 382.838 175.609 383.565 180.755C383.969 183.611 385.226 186.506 384.57 189.419C383.251 195.283 377.898 199.796 375.284 205.024" stroke="black" stroke-width="3" stroke-linecap="round"/>
<path d="M384.762 168.836C386.434 176.019 388.639 183.276 388.639 190.712C388.639 193.413 388.208 196.077 388.208 198.777C388.208 200.146 386.441 201.776 385.887 203.013C385.204 204.536 384.169 205.617 383.039 206.747" stroke="black" stroke-width="3" stroke-linecap="round"/>
<path d="M331.469 196.046C327.601 194.075 322.758 196.479 325.299 191.492C327.84 186.506 332.045 188.685 335.913 190.656C339.781 192.627 343.361 193.559 340.82 198.546C338.279 203.533 335.337 198.017 331.469 196.046Z" fill="#AF7777"/>
<path d="M332.159 197.234C328.48 199.232 323.725 196.988 326.333 201.793C328.942 206.597 332.94 204.39 336.62 202.392C340.299 200.395 343.731 199.414 341.122 194.61C338.514 189.805 335.838 195.236 332.159 197.234Z" fill="#AF7777"/>
</svg>
